<svg version="1.1" viewBox="0.0 0.0 829.0 128.0" fill="none" stroke="none" stroke-linecap="square" stroke-miterlimit="10" xmlns:xlink="http://www.w3.org/1999/xlink" xmlns="http://www.w3.org/2000/svg"><clipPath id="p.0"><path d="m0 0l829.0 0l0 128.0l-829.0 0l0 -128.0z" clip-rule="nonzero"/></clipPath><g clip-path="url(#p.0)"><path fill="#000000" fill-opacity="0.0" d="m0 0l829.0 0l0 128.0l-829.0 0z" fill-rule="evenodd"/><path fill="#ff80b6" d="m46.874016 20.412073l134.48819 0l0 93.98425l-134.48819 0z" fill-rule="evenodd"/><path fill="#ff80b6" d="m46.874016 114.396324l-35.826775 -46.992126l35.732285 -46.992126z" fill-rule="evenodd"/><path fill="#ffffff" d="m784.3858 114.396324l35.826782 -46.992126l-35.7323 -46.992126z" fill-rule="evenodd"/><path fill="#ffffff" d="m486.4987 20.4042l297.88974 0l0 94.07874l-297.88974 0z" fill-rule="evenodd"/><path fill="#ff80b6" d="m165.61417 114.396324l56.317245 -93.98425l271.71423 0l-56.31723 93.98425z" fill-rule="evenodd"/><path fill="#ffffff" d="m493.6378 114.38845l0 -92.125984l-66.14172 92.125984z" fill-rule="evenodd"/><path fill="#ff80b6" d="m165.61417 20.412073l0 93.98425l59.370087 -93.98425z" fill-rule="evenodd"/><path fill="#ff80b6" d="m66.40478 21.750145c0.83332825 -2.3748913 2.6662292 -8.624234 4.249344 -11.249344c1.5831146 -2.6251092 3.5411148 -4.459755 5.249344 -4.5013123c1.7082214 -0.041557312 3.6666641 2.4601927 5.0 4.2519684c1.3333282 1.7917767 2.291771 4.1653547 3.0 6.4986877c0.70822144 2.333334 4.290901 6.1679783 1.2493439 7.5013123c-3.0415573 1.333334 -16.374016 0.9155731 -19.498688 0.49868774c-3.1246758 -0.41688538 -0.08267975 -0.6251087 0.7506561 -3.0z" fill-rule="evenodd"/><path fill="#ffffff" d="m75.7081 12.411012c-0.6342926 0.06342983 -1.6491699 4.059493 -1.9028854 5.708661c-0.25371552 1.6491699 0.3805771 2.5371838 0.3805771 4.186352c0 1.6491699 0.3171463 4.3132114 -0.3805771 5.708662c-0.6977234 1.3954506 -1.9028854 1.14217 -3.8057785 2.6640415c-1.9028854 1.5218716 -5.454941 3.7401562 -7.6115456 6.4671917c-2.1566048 2.7270355 -3.9330711 6.3429565 -5.328083 9.895012c-1.3950119 3.5520592 -2.7252846 7.2309723 -3.041996 11.417324c-0.3167076 4.186352 -8.735657E-4 9.9584465 1.1417351 13.700787c1.1426048 3.7423477 3.8101463 6.4063873 5.713909 8.753281c1.9037628 2.3468933 5.18285 2.6259842 5.70866 5.328087c0.52581024 2.702095 -2.2738419 8.591423 -2.5538025 10.884514c-0.27996826 2.2930908 -2.8967667 2.395012 0.8740158 2.8740158c3.7707748 0.4790039 18.083984 0.4790039 21.750656 0c3.6666641 -0.4790039 0.6767273 -0.51750183 0.24934387 -2.8740158c-0.42738342 -2.3565216 -3.4864426 -8.372269 -2.813652 -11.265091c0.6727905 -2.89283 4.7563477 -3.4483795 6.850395 -6.0918655c2.0940475 -2.6434784 4.7200317 -5.4326324 5.713913 -9.769028c0.9938736 -4.3363953 1.5411148 -10.749344 0.24934387 -16.249344c-1.2917786 -5.5 -4.975067 -12.461506 -8.0 -16.750656c-3.0249329 -4.289154 -8.267715 -5.7742786 -10.149605 -8.984253c-1.881897 -3.2099743 -0.63430023 -7.6749783 -1.1417389 -10.275591c-0.50743103 -2.6006117 -1.2685852 -5.391513 -1.9028854 -5.328084z" fill-rule="evenodd"/><path fill="#ffffff" d="m784.2493 20.750656l-3.7479858 9.0l0.24932861 74.49869l3.7506714 10.251968l3.0 -13.501312l0.24932861 -71.249344z" fill-rule="evenodd"/><path fill="#ff80b6" d="m47.249344 20.52756l-3.7480316 9.0l0.24934387 74.49869l3.7506561 10.251968l3.0 -13.501312l0.24934387 -71.249344z" fill-rule="evenodd"/><path fill="#000000" fill-opacity="0.0" d="m96.031494 12.215223l227.9685 0l0 67.874016l-227.9685 0z" fill-rule="evenodd"/><path fill="#ffffff" d="m129.31274 57.412094q-1.796875 1.203125 -4.109375 1.953125q-2.296875 0.734375 -5.125 0.734375q-3.28125 0 -5.6875 -1.078125q-2.40625 -1.09375 -3.984375 -2.921875q-1.578125 -1.84375 -2.34375 -4.265625q-0.75 -2.421875 -0.75 -5.140625q0 -2.84375 0.828125 -5.3125q0.84375 -2.484375 2.5 -4.34375q1.671875 -1.859375 4.125 -2.9375q2.46875 -1.078125 5.75 -1.078125q2.3125 0 4.515625 0.453125q2.203125 0.453125 3.921875 1.265625l-0.84375 2.875q-1.28125 -0.84375 -3.296875 -1.390625q-2.015625 -0.5625 -4.546875 -0.5625q-2.671875 0 -4.515625 0.78125q-1.84375 0.765625 -2.984375 2.171875q-1.140625 1.40625 -1.640625 3.390625q-0.5 1.96875 -0.5 4.375q0 5.46875 2.40625 8.28125q2.40625 2.796875 7.15625 2.796875q1.765625 0 3.296875 -0.359375q1.546875 -0.359375 2.828125 -0.921875l0 -7.4375l3.0 0l0 8.671875zm8.037476 -16.203125l0 12.171875q0 1.234375 0.296875 2.078125q0.296875 0.84375 0.796875 1.34375q0.5 0.5 1.203125 0.71875q0.703125 0.21875 1.546875 0.21875q1.0 0 1.96875 -0.296875q0.984375 -0.3125 1.828125 -0.90625q0.84375 -0.609375 1.484375 -1.484375q0.640625 -0.875 1.0 -2.03125l0 -11.8125l2.796875 0l0 18.40625l-2.203125 0l-0.3125 -3.4375l-0.171875 0q-0.515625 1.671875 -2.3125 2.796875q-1.796875 1.125 -4.484375 1.125q-1.28125 0 -2.421875 -0.328125q-1.140625 -0.3125 -1.984375 -1.046875q-0.828125 -0.75 -1.328125 -1.96875q-0.5 -1.21875 -0.5 -3.015625l0 -12.53125l2.796875 0zm30.838104 18.40625l-0.3125 -3.28125l-0.171875 0q-0.46875 0.765625 -1.28125 1.453125q-0.796875 0.671875 -1.78125 1.1875q-0.96875 0.515625 -2.109375 0.8125q-1.140625 0.3125 -2.265625 0.3125q-2.640625 0 -3.96875 -1.53125q-1.3125 -1.546875 -1.3125 -3.875q0 -2.28125 1.15625 -3.640625q1.171875 -1.359375 2.84375 -2.03125q1.6875 -0.6875 3.546875 -0.890625q1.859375 -0.203125 3.265625 -0.203125l1.796875 0l0 -0.46875q0 -1.53125 -0.421875 -2.328125q-0.421875 -0.796875 -1.21875 -1.359375q-0.6875 -0.4375 -1.46875 -0.609375q-0.78125 -0.1875 -2.046875 -0.1875q-1.6875 0 -2.96875 0.4375q-1.28125 0.4375 -2.484375 1.15625l-0.640625 -2.390625q2.6875 -1.5625 6.40625 -1.5625q1.484375 0 2.796875 0.265625q1.328125 0.25 2.328125 0.890625q1.15625 0.71875 1.828125 2.046875q0.6875 1.3125 0.6875 3.28125l0 12.515625l-2.203125 0zm-7.078125 -1.875q1.640625 0 3.484375 -1.03125q1.84375 -1.046875 3.0 -3.015625l0 -3.71875l-0.359375 0q-1.640625 0 -3.28125 0.125q-1.640625 0.109375 -2.984375 0.59375q-1.34375 0.484375 -2.1875 1.390625q-0.828125 0.890625 -0.828125 2.453125q0 1.5625 0.859375 2.390625q0.859375 0.8125 2.296875 0.8125zm25.248108 -13.5625q-0.640625 -0.359375 -1.28125 -0.578125q-0.640625 -0.21875 -1.25 -0.21875q-0.796875 0 -1.515625 0.4375q-0.71875 0.4375 -1.328125 1.203125q-0.59375 0.75 -1.0625 1.75q-0.453125 1.0 -0.6875 2.078125l0 10.765625l-2.796875 0l0 -18.40625l2.1875 0l0.328125 4.046875l0.15625 0q0.28125 -0.921875 0.734375 -1.75q0.46875 -0.84375 1.125 -1.484375q0.65625 -0.640625 1.5 -1.015625q0.84375 -0.390625 1.921875 -0.390625q0.765625 0 1.59375 0.265625q0.84375 0.25 1.203125 0.65625l-0.828125 2.640625zm16.029984 15.4375l-0.3125 -3.28125l-0.171875 0q-0.46875 0.765625 -1.28125 1.453125q-0.796875 0.671875 -1.78125 1.1875q-0.96875 0.515625 -2.109375 0.8125q-1.140625 0.3125 -2.265625 0.3125q-2.640625 0 -3.96875 -1.53125q-1.3125 -1.546875 -1.3125 -3.875q0 -2.28125 1.15625 -3.640625q1.171875 -1.359375 2.84375 -2.03125q1.6875 -0.6875 3.546875 -0.890625q1.859375 -0.203125 3.265625 -0.203125l1.796875 0l0 -0.46875q0 -1.53125 -0.421875 -2.328125q-0.421875 -0.796875 -1.21875 -1.359375q-0.6875 -0.4375 -1.46875 -0.609375q-0.78125 -0.1875 -2.046875 -0.1875q-1.6875 0 -2.96875 0.4375q-1.28125 0.4375 -2.484375 1.15625l-0.640625 -2.390625q2.6875 -1.5625 6.40625 -1.5625q1.484375 0 2.796875 0.265625q1.328125 0.25 2.328125 0.890625q1.15625 0.71875 1.828125 2.046875q0.6875 1.3125 0.6875 3.28125l0 12.515625l-2.203125 0zm-7.078125 -1.875q1.640625 0 3.484375 -1.03125q1.84375 -1.046875 3.0 -3.015625l0 -3.71875l-0.359375 0q-1.640625 0 -3.28125 0.125q-1.640625 0.109375 -2.984375 0.59375q-1.34375 0.484375 -2.1875 1.390625q-0.828125 0.890625 -0.828125 2.453125q0 1.5625 0.859375 2.390625q0.859375 0.8125 2.296875 0.8125zm28.248108 1.875l0 -12.15625q0 -2.40625 -1.09375 -3.4375q-1.078125 -1.046875 -2.75 -1.046875q-1.0 0 -1.984375 0.328125q-0.984375 0.3125 -1.828125 0.9375q-0.828125 0.609375 -1.46875 1.515625q-0.640625 0.90625 -1.0 2.0625l0 11.796875l-2.796875 0l0 -18.40625l2.1875 0l0.328125 3.453125l0.15625 0q0.515625 -1.6875 2.3125 -2.859375q1.8125 -1.1875 4.484375 -1.1875q1.28125 0 2.421875 0.34375q1.140625 0.34375 1.984375 1.109375q0.84375 0.75 1.34375 2.0q0.5 1.234375 0.5 3.03125l0 12.515625l-2.796875 0zm9.706223 -16.515625l-3.078125 0l0 -1.484375l3.171875 -0.40625l0.59375 -5.546875l2.125 0l0 5.546875l4.3125 0l0 1.890625l-4.3125 0l0 12.75q0 1.28125 0.375 1.6875q0.375 0.390625 1.171875 0.390625q0.921875 0 1.640625 -0.265625q0.734375 -0.28125 1.28125 -0.6875l0.5625 2.125q-0.671875 0.3125 -1.78125 0.625q-1.09375 0.328125 -2.421875 0.328125q-1.28125 0 -2.0 -0.359375q-0.71875 -0.359375 -1.078125 -0.953125q-0.359375 -0.609375 -0.46875 -1.34375q-0.09375 -0.734375 -0.09375 -1.46875l0 -12.828125zm19.926239 -2.484375q3.515625 0 5.4375 1.78125q1.921875 1.78125 1.921875 5.015625q0 0.6875 -0.078125 1.390625q-0.078125 0.6875 -0.28125 1.015625l-13.484375 0l0 0.390625q0 1.53125 0.40625 2.9375q0.40625 1.390625 1.203125 2.46875q0.796875 1.078125 2.015625 1.71875q1.21875 0.640625 2.90625 0.640625q0.953125 0 1.875 -0.21875q0.921875 -0.21875 1.75 -0.5625q0.84375 -0.34375 1.5625 -0.734375q0.71875 -0.40625 1.28125 -0.796875l0.484375 2.265625q-0.515625 0.328125 -1.28125 0.71875q-0.765625 0.375 -1.6875 0.703125q-0.90625 0.3125 -2.015625 0.53125q-1.09375 0.21875 -2.296875 0.21875q-2.234375 0 -3.953125 -0.78125q-1.71875 -0.78125 -2.890625 -2.125q-1.15625 -1.34375 -1.765625 -3.09375q-0.59375 -1.765625 -0.59375 -3.6875q0 -1.953125 0.625 -3.734375q0.625 -1.78125 1.8125 -3.140625q1.203125 -1.359375 2.984375 -2.140625q1.78125 -0.78125 4.0625 -0.78125zm-0.125 2.234375q-2.640625 0 -4.09375 1.390625q-1.453125 1.375 -1.984375 3.453125l10.921875 0q0.046875 -0.203125 0.046875 -0.359375q0 -0.15625 0 -0.359375q0 -1.0 -0.40625 -1.78125q-0.40625 -0.78125 -1.09375 -1.296875q-0.671875 -0.515625 -1.546875 -0.78125q-0.875 -0.265625 -1.84375 -0.265625zm20.804993 -2.234375q3.515625 0 5.4375 1.78125q1.921875 1.78125 1.921875 5.015625q0 0.6875 -0.078125 1.390625q-0.078125 0.6875 -0.28125 1.015625l-13.484375 0l0 0.390625q0 1.53125 0.40625 2.9375q0.40625 1.390625 1.203125 2.46875q0.796875 1.078125 2.015625 1.71875q1.21875 0.640625 2.90625 0.640625q0.953125 0 1.875 -0.21875q0.921875 -0.21875 1.75 -0.5625q0.84375 -0.34375 1.5625 -0.734375q0.71875 -0.40625 1.28125 -0.796875l0.484375 2.265625q-0.515625 0.328125 -1.28125 0.71875q-0.765625 0.375 -1.6875 0.703125q-0.90625 0.3125 -2.015625 0.53125q-1.09375 0.21875 -2.296875 0.21875q-2.234375 0 -3.953125 -0.78125q-1.71875 -0.78125 -2.890625 -2.125q-1.15625 -1.34375 -1.765625 -3.09375q-0.59375 -1.765625 -0.59375 -3.6875q0 -1.953125 0.625 -3.734375q0.625 -1.78125 1.8125 -3.140625q1.203125 -1.359375 2.984375 -2.140625q1.78125 -0.78125 4.0625 -0.78125zm-0.125 2.234375q-2.640625 0 -4.09375 1.390625q-1.453125 1.375 -1.984375 3.453125l10.921875 0q0.046875 -0.203125 0.046875 -0.359375q0 -0.15625 0 -0.359375q0 -1.0 -0.40625 -1.78125q-0.40625 -0.78125 -1.09375 -1.296875q-0.671875 -0.515625 -1.546875 -0.78125q-0.875 -0.265625 -1.84375 -0.265625zm19.445587 17.25q-2.046875 0 -3.5625 -0.796875q-1.515625 -0.8125 -2.515625 -2.125q-1.0 -1.328125 -1.5 -3.0625q-0.5 -1.734375 -0.5 -3.65625q0 -1.96875 0.53125 -3.765625q0.546875 -1.796875 1.609375 -3.140625q1.0625 -1.34375 2.65625 -2.140625q1.59375 -0.796875 3.71875 -0.796875q2.6875 0 4.40625 1.15625q1.71875 1.15625 2.234375 2.890625l0 -14.640623l2.796875 0l0 29.593748l-2.1875 0l-0.328125 -3.28125l-0.15625 0q-0.96875 1.484375 -2.8125 2.625q-1.828125 1.140625 -4.390625 1.140625zm0.3125 -2.359375q1.921875 0 3.78125 -1.03125q1.859375 -1.046875 2.984375 -3.015625l0 -5.875q-0.71875 -2.28125 -2.421875 -3.5625q-1.703125 -1.28125 -3.8125 -1.28125q-1.40625 0 -2.515625 0.5625q-1.09375 0.5625 -1.859375 1.5625q-0.75 1.0 -1.171875 2.40625q-0.421875 1.390625 -0.421875 3.0625q0 1.28125 0.28125 2.5625q0.28125 1.28125 0.921875 2.3125q0.640625 1.015625 1.671875 1.65625q1.046875 0.640625 2.5625 0.640625z" fill-rule="nonzero"/><path fill="#ffffff" d="m109.53153 78.9305l13.702698 9.1552734E-5l4.234276 -13.029015l4.234268 13.029015l13.702698 -9.1552734E-5l-11.08577 8.052277l4.2344513 13.028954l-11.085648 -8.052429l-11.085655 8.052429l4.2344513 -13.028954z" fill-rule="evenodd"/><path fill="#000000" fill-opacity="0.0" d="m138.90158 49.019684l337.92126 0l0 67.874016l-337.92126 0z" fill-rule="evenodd"/><path fill="#ffffff" d="m166.26096 88.013435l-2.765625 0l0 8.40625l-3.0 0l0 -8.40625l-11.359375 0l0 -2.796875l11.171875 -15.203125l3.1875 0l0 15.203125l2.765625 0l0 2.796875zm-5.765625 -2.796875l0 -10.84375l-7.953125 10.84375l7.953125 0zm34.47934 7.4375l8.96875 -22.640625l3.84375 0l0 26.40625l-3.0 0l0 -19.953125l-8.078125 19.953125l-3.609375 0l-8.125 -20.0l0 20.0l-3.0 0l0 -26.40625l4.046875 0l8.953125 22.640625zm31.163727 3.765625l-0.3125 -3.28125l-0.171875 0q-0.46875 0.765625 -1.28125 1.453125q-0.796875 0.671875 -1.78125 1.1875q-0.96875 0.515625 -2.109375 0.8125q-1.140625 0.3125 -2.265625 0.3125q-2.640625 0 -3.96875 -1.53125q-1.3125 -1.546875 -1.3125 -3.875q0 -2.28125 1.15625 -3.640625q1.171875 -1.359375 2.84375 -2.03125q1.6875 -0.6875 3.546875 -0.890625q1.859375 -0.203125 3.265625 -0.203125l1.796875 0l0 -0.46875q0 -1.53125 -0.421875 -2.328125q-0.421875 -0.796875 -1.21875 -1.359375q-0.6875 -0.4375 -1.46875 -0.609375q-0.78125 -0.1875 -2.046875 -0.1875q-1.6875 0 -2.96875 0.4375q-1.28125 0.4375 -2.484375 1.15625l-0.640625 -2.390625q2.6875 -1.5625 6.40625 -1.5625q1.484375 0 2.796875 0.265625q1.328125 0.25 2.328125 0.890625q1.15625 0.71875 1.828125 2.046875q0.6875 1.3125 0.6875 3.28125l0 12.515625l-2.203125 0zm-7.078125 -1.875q1.640625 0 3.484375 -1.03125q1.84375 -1.046875 3.0 -3.015625l0 -3.71875l-0.359375 0q-1.640625 0 -3.28125 0.125q-1.640625 0.109375 -2.984375 0.59375q-1.34375 0.484375 -2.1875 1.390625q-0.828125 0.890625 -0.828125 2.453125q0 1.5625 0.859375 2.390625q0.859375 0.8125 2.296875 0.8125zm17.841858 -3.8125q-1.921875 -0.75 -2.765625 -2.40625q-0.828125 -1.671875 -0.828125 -3.59375q0 -1.546875 0.515625 -2.859375q0.515625 -1.328125 1.5 -2.328125q0.984375 -1.0 2.359375 -1.5625q1.375 -0.5625 3.140625 -0.5625q1.03125 0 2.046875 0.203125q1.03125 0.203125 1.796875 0.59375q1.671875 -0.03125 3.125 -0.1875q1.46875 -0.171875 2.75 -0.53125l0.203125 0.15625l-0.28125 2.203125l-0.203125 0.203125l-3.640625 -0.15625l-0.046875 0.109375q1.046875 0.84375 1.515625 2.203125q0.484375 1.359375 0.484375 2.640625q0 1.328125 -0.5 2.53125q-0.5 1.1875 -1.453125 2.09375q-0.953125 0.890625 -2.375 1.4375q-1.421875 0.546875 -3.265625 0.546875q-0.4375 0 -0.765625 -0.015625q-0.3125 -0.03125 -0.59375 -0.03125q-0.84375 0.28125 -1.265625 0.765625q-0.40625 0.46875 -0.40625 0.796875q0 0.390625 0.53125 0.703125q0.546875 0.296875 1.734375 0.421875l3.890625 0.390625q1.3125 0.125 2.453125 0.546875q1.140625 0.421875 1.984375 1.078125q0.84375 0.65625 1.34375 1.59375q0.5 0.9375 0.5 2.140625q0 1.15625 -0.53125 2.375q-0.515625 1.234375 -1.546875 2.109375q-1.046875 0.875 -2.890625 1.4375q-1.84375 0.5625 -4.234375 0.5625q-2.046875 0 -3.671875 -0.421875q-1.609375 -0.421875 -2.71875 -1.171875q-1.09375 -0.734375 -1.671875 -1.6875q-0.578125 -0.953125 -0.578125 -2.046875q0 -0.796875 0.3125 -1.578125q0.328125 -0.78125 0.84375 -1.46875q0.515625 -0.671875 1.21875 -1.1875q0.703125 -0.515625 1.46875 -0.796875l0 -0.15625q-1.640625 -0.765625 -1.640625 -2.09375q0 -0.828125 0.609375 -1.5q0.625 -0.6875 1.546875 -1.328125l0 -0.171875zm4.078125 -1.265625q1.125 0 1.984375 -0.375q0.859375 -0.390625 1.453125 -1.0q0.609375 -0.625 0.921875 -1.46875q0.328125 -0.84375 0.328125 -1.765625q0 -0.921875 -0.328125 -1.875q-0.3125 -0.96875 -0.9375 -1.734375q-0.625 -0.78125 -1.546875 -1.265625q-0.90625 -0.484375 -2.109375 -0.484375q-1.171875 0 -2.03125 0.46875q-0.859375 0.453125 -1.4375 1.171875q-0.578125 0.71875 -0.859375 1.609375q-0.28125 0.875 -0.28125 1.75q0 0.921875 0.296875 1.8125q0.3125 0.875 0.921875 1.578125q0.625 0.6875 1.515625 1.140625q0.90625 0.4375 2.109375 0.4375zm-1.28125 7.15625q-0.921875 0 -1.703125 0.359375q-0.78125 0.359375 -1.359375 0.921875q-0.578125 0.5625 -0.921875 1.25q-0.328125 0.703125 -0.328125 1.390625q0 1.515625 1.609375 2.40625q1.625 0.90625 4.390625 0.90625q1.3125 0 2.453125 -0.21875q1.140625 -0.21875 1.953125 -0.6875q0.828125 -0.453125 1.296875 -1.109375q0.484375 -0.65625 0.484375 -1.578125q0 -1.796875 -1.9375 -2.578125q-1.9375 -0.78125 -5.9375 -1.0625zm17.804352 -0.203125l-2.796875 0l0 -18.40625l2.796875 0l0 18.40625zm-3.40625 -25.125q0 -0.796875 0.578125 -1.4375q0.59375 -0.640625 1.421875 -0.640625q0.796875 0 1.4375 0.640625q0.640625 0.640625 0.640625 1.4375q0 0.84375 -0.640625 1.421875q-0.640625 0.578125 -1.4375 0.578125q-0.828125 0 -1.421875 -0.578125q-0.578125 -0.578125 -0.578125 -1.421875zm24.008728 10.078125q-0.921875 -0.671875 -2.640625 -1.203125q-1.71875 -0.546875 -3.4375 -0.546875q-1.765625 0 -2.984375 0.609375q-1.21875 0.59375 -2.03125 1.59375q-0.796875 1.0 -1.15625 2.296875q-0.359375 1.296875 -0.359375 2.703125q0 1.546875 0.4375 3.0q0.453125 1.4375 1.3125 2.515625q0.859375 1.078125 2.109375 1.71875q1.265625 0.640625 2.953125 0.640625q1.59375 0 3.296875 -0.671875q1.703125 -0.6875 2.8125 -1.734375l0.5625 2.609375q-1.125 0.71875 -3.0625 1.359375q-1.9375 0.640625 -4.140625 0.640625q-2.3125 0 -4.0625 -0.796875q-1.734375 -0.8125 -2.875 -2.140625q-1.140625 -1.34375 -1.71875 -3.125q-0.578125 -1.78125 -0.578125 -3.78125q0 -1.921875 0.53125 -3.65625q0.546875 -1.75 1.703125 -3.078125q1.15625 -1.34375 2.953125 -2.125q1.8125 -0.78125 4.328125 -0.78125q1.921875 0 3.765625 0.4375q1.84375 0.4375 2.953125 1.15625l-0.671875 2.359375zm17.3125 15.046875l-0.3125 -3.28125l-0.171875 0q-0.46875 0.765625 -1.28125 1.453125q-0.796875 0.671875 -1.78125 1.1875q-0.96875 0.515625 -2.109375 0.8125q-1.140625 0.3125 -2.265625 0.3125q-2.640625 0 -3.96875 -1.53125q-1.3125 -1.546875 -1.3125 -3.875q0 -2.28125 1.15625 -3.640625q1.171875 -1.359375 2.84375 -2.03125q1.6875 -0.6875 3.546875 -0.890625q1.859375 -0.203125 3.265625 -0.203125l1.796875 0l0 -0.46875q0 -1.53125 -0.421875 -2.328125q-0.421875 -0.796875 -1.21875 -1.359375q-0.6875 -0.4375 -1.46875 -0.609375q-0.78125 -0.1875 -2.046875 -0.1875q-1.6875 0 -2.96875 0.4375q-1.28125 0.4375 -2.484375 1.15625l-0.640625 -2.390625q2.6875 -1.5625 6.40625 -1.5625q1.484375 0 2.796875 0.265625q1.328125 0.25 2.328125 0.890625q1.15625 0.71875 1.828125 2.046875q0.6875 1.3125 0.6875 3.28125l0 12.515625l-2.203125 0zm-7.078125 -1.875q1.640625 0 3.484375 -1.03125q1.84375 -1.046875 3.0 -3.015625l0 -3.71875l-0.359375 0q-1.640625 0 -3.28125 0.125q-1.640625 0.109375 -2.984375 0.59375q-1.34375 0.484375 -2.1875 1.390625q-0.828125 0.890625 -0.828125 2.453125q0 1.5625 0.859375 2.390625q0.859375 0.8125 2.296875 0.8125zm18.357483 1.875l-2.796875 0l0 -29.59375l2.796875 0l0 29.59375zm37.444977 -2.203125q-1.796875 1.203125 -4.109375 1.953125q-2.296875 0.734375 -5.125 0.734375q-3.28125 0 -5.6875 -1.078125q-2.40625 -1.09375 -3.984375 -2.921875q-1.578125 -1.84375 -2.34375 -4.265625q-0.75 -2.421875 -0.75 -5.140625q0 -2.84375 0.828125 -5.3125q0.84375 -2.484375 2.5 -4.34375q1.671875 -1.859375 4.125 -2.9375q2.46875 -1.078125 5.75 -1.078125q2.3125 0 4.515625 0.453125q2.203125 0.453125 3.921875 1.265625l-0.84375 2.875q-1.28125 -0.84375 -3.296875 -1.390625q-2.015625 -0.5625 -4.546875 -0.5625q-2.671875 0 -4.515625 0.78125q-1.84375 0.765625 -2.984375 2.171875q-1.140625 1.40625 -1.640625 3.390625q-0.5 1.96875 -0.5 4.375q0 5.46875 2.40625 8.28125q2.40625 2.796875 7.15625 2.796875q1.765625 0 3.296875 -0.359375q1.546875 -0.359375 2.828125 -0.921875l0 -7.4375l3.0 0l0 8.671875zm8.520599 2.203125l-2.796875 0l0 -18.40625l2.796875 0l0 18.40625zm-3.40625 -25.125q0 -0.796875 0.578125 -1.4375q0.59375 -0.640625 1.421875 -0.640625q0.796875 0 1.4375 0.640625q0.640625 0.640625 0.640625 1.4375q0 0.84375 -0.640625 1.421875q-0.640625 0.578125 -1.4375 0.578125q-0.828125 0 -1.421875 -0.578125q-0.578125 -0.578125 -0.578125 -1.421875zm19.571228 9.6875q-0.640625 -0.359375 -1.28125 -0.578125q-0.640625 -0.21875 -1.25 -0.21875q-0.796875 0 -1.515625 0.4375q-0.71875 0.4375 -1.328125 1.203125q-0.59375 0.75 -1.0625 1.75q-0.453125 1.0 -0.6875 2.078125l0 10.765625l-2.796875 0l0 -18.40625l2.1875 0l0.328125 4.046875l0.15625 0q0.28125 -0.921875 0.734375 -1.75q0.46875 -0.84375 1.125 -1.484375q0.65625 -0.640625 1.5 -1.015625q0.84375 -0.390625 1.921875 -0.390625q0.765625 0 1.59375 0.265625q0.84375 0.25 1.203125 0.65625l-0.828125 2.640625zm7.389374 15.4375l-2.796875 0l0 -29.59375l2.796875 0l0 29.59375zm20.116852 0l-3.0 0l0 -26.40625l3.0 0l0 26.40625zm19.773712 0l0 -12.15625q0 -2.40625 -1.09375 -3.4375q-1.078125 -1.046875 -2.75 -1.046875q-1.0 0 -1.984375 0.328125q-0.984375 0.3125 -1.828125 0.9375q-0.828125 0.609375 -1.46875 1.515625q-0.640625 0.90625 -1.0 2.0625l0 11.796875l-2.796875 0l0 -18.40625l2.1875 0l0.328125 3.453125l0.15625 0q0.515625 -1.6875 2.3125 -2.859375q1.8125 -1.1875 4.484375 -1.1875q1.28125 0 2.421875 0.34375q1.140625 0.34375 1.984375 1.109375q0.84375 0.75 1.34375 2.0q0.5 1.234375 0.5 3.03125l0 12.515625l-2.796875 0zm8.706238 -1.40625q0 -0.75 0.515625 -1.328125q0.53125 -0.578125 1.328125 -0.578125q0.765625 0 1.34375 0.578125q0.578125 0.578125 0.578125 1.328125q0 0.765625 -0.578125 1.3125q-0.578125 0.53125 -1.34375 0.53125q-0.796875 0 -1.328125 -0.53125q-0.515625 -0.546875 -0.515625 -1.3125zm0 -14.90625q0 -0.765625 0.515625 -1.328125q0.53125 -0.5625 1.328125 -0.5625q0.765625 0 1.34375 0.5625q0.578125 0.5625 0.578125 1.328125q0 0.796875 -0.578125 1.34375q-0.578125 0.53125 -1.34375 0.53125q-0.796875 0 -1.328125 -0.53125q-0.515625 -0.546875 -0.515625 -1.34375z" fill-rule="nonzero"/></g></svg>