<svg version="1.1" viewBox="0.0 0.0 829.0 128.0" fill="none" stroke="none" stroke-linecap="square" stroke-miterlimit="10" xmlns:xlink="http://www.w3.org/1999/xlink" xmlns="http://www.w3.org/2000/svg"><clipPath id="p.0"><path d="m0 0l829.0 0l0 128.0l-829.0 0l0 -128.0z" clip-rule="nonzero"/></clipPath><g clip-path="url(#p.0)"><path fill="#000000" fill-opacity="0.0" d="m0 0l829.0 0l0 128.0l-829.0 0z" fill-rule="evenodd"/><path fill="#ff80b6" d="m46.874016 20.412073l134.48819 0l0 93.98425l-134.48819 0z" fill-rule="evenodd"/><path fill="#ff80b6" d="m46.874016 114.396324l-35.826775 -46.992126l35.732285 -46.992126z" fill-rule="evenodd"/><path fill="#ffffff" d="m784.3858 114.396324l35.826782 -46.992126l-35.7323 -46.992126z" fill-rule="evenodd"/><path fill="#ffffff" d="m363.55118 20.4042l420.85037 0l0 94.07874l-420.85037 0z" fill-rule="evenodd"/><path fill="#ff80b6" d="m165.61417 114.396324l56.317245 -93.98425l271.99774 0l-56.31726 93.98425z" fill-rule="evenodd"/><path fill="#ff80b6" d="m165.61417 20.412073l0 93.98425l59.370087 -93.98425z" fill-rule="evenodd"/><path fill="#ffffff" d="m784.2493 20.750656l-3.7479858 9.0l0.24932861 74.49869l3.7506714 10.251968l3.0 -13.501312l0.24932861 -71.249344z" fill-rule="evenodd"/><path fill="#ff80b6" d="m47.249344 20.52756l-3.7480316 9.0l0.24934387 74.49869l3.7506561 10.251968l3.0 -13.501312l0.24934387 -71.249344z" fill-rule="evenodd"/><path fill="#000000" fill-opacity="0.0" d="m129.38321 33.688976l304.85037 0l0 67.87402l-304.85037 0z" fill-rule="evenodd"/><path fill="#ffffff" d="m158.97696 57.495224l-8.4375 0l0 23.59375l-3.0 0l0 -23.59375l-8.4375 0l0 -2.8125l19.875 0l0 2.8125zm8.249359 4.59375q2.4375 0 4.1875 0.828125q1.765625 0.8125 2.90625 2.203125q1.140625 1.375 1.671875 3.15625q0.546875 1.765625 0.546875 3.734375q0 1.953125 -0.546875 3.703125q-0.53125 1.734375 -1.65625 3.03125q-1.109375 1.296875 -2.859375 2.0625q-1.734375 0.765625 -4.09375 0.765625q-2.4375 0 -4.21875 -0.796875q-1.78125 -0.8125 -2.9375 -2.140625q-1.15625 -1.34375 -1.71875 -3.09375q-0.5625 -1.765625 -0.5625 -3.734375q0 -1.953125 0.5625 -3.71875q0.5625 -1.765625 1.6875 -3.09375q1.140625 -1.34375 2.90625 -2.125q1.765625 -0.78125 4.125 -0.78125zm0.109375 17.359375q1.609375 0 2.78125 -0.59375q1.1875 -0.609375 1.96875 -1.625q0.78125 -1.015625 1.140625 -2.359375q0.359375 -1.34375 0.359375 -2.828125q0 -1.515625 -0.390625 -2.90625q-0.375 -1.40625 -1.171875 -2.46875q-0.796875 -1.0625 -2.015625 -1.703125q-1.21875 -0.640625 -2.90625 -0.640625q-1.640625 0 -2.796875 0.609375q-1.15625 0.59375 -1.921875 1.59375q-0.765625 1.0 -1.125 2.34375q-0.359375 1.34375 -0.359375 2.8125q0 1.53125 0.375 2.9375q0.390625 1.390625 1.171875 2.46875q0.78125 1.078125 2.0 1.71875q1.21875 0.640625 2.890625 0.640625zm15.080597 -14.875l-3.078125 0l0 -1.484375l3.171875 -0.40625l0.59375 -5.546875l2.125 0l0 5.546875l4.3125 0l0 1.890625l-4.3125 0l0 12.75q0 1.28125 0.375 1.6875q0.375 0.390625 1.171875 0.390625q0.921875 0 1.640625 -0.265625q0.734375 -0.28125 1.28125 -0.6875l0.5625 2.125q-0.671875 0.3125 -1.78125 0.625q-1.09375 0.328125 -2.421875 0.328125q-1.28125 0 -2.0 -0.359375q-0.71875 -0.359375 -1.078125 -0.953125q-0.359375 -0.609375 -0.46875 -1.34375q-0.09375 -0.734375 -0.09375 -1.46875l0 -12.828125zm23.363739 16.515625l-0.3125 -3.28125l-0.171875 0q-0.46875 0.765625 -1.28125 1.453125q-0.796875 0.671875 -1.78125 1.1875q-0.96875 0.515625 -2.109375 0.8125q-1.140625 0.3125 -2.265625 0.3125q-2.640625 0 -3.96875 -1.53125q-1.3125 -1.546875 -1.3125 -3.875q0 -2.28125 1.15625 -3.640625q1.171875 -1.359375 2.84375 -2.03125q1.6875 -0.6875 3.546875 -0.890625q1.859375 -0.203125 3.265625 -0.203125l1.796875 0l0 -0.46875q0 -1.53125 -0.421875 -2.328125q-0.421875 -0.796875 -1.21875 -1.359375q-0.6875 -0.4375 -1.46875 -0.609375q-0.78125 -0.1875 -2.046875 -0.1875q-1.6875 0 -2.96875 0.4375q-1.28125 0.4375 -2.484375 1.15625l-0.640625 -2.390625q2.6875 -1.5625 6.40625 -1.5625q1.484375 0 2.796875 0.265625q1.328125 0.25 2.328125 0.890625q1.15625 0.71875 1.828125 2.046875q0.6875 1.3125 0.6875 3.28125l0 12.515625l-2.203125 0zm-7.078125 -1.875q1.640625 0 3.484375 -1.03125q1.84375 -1.046875 3.0 -3.015625l0 -3.71875l-0.359375 0q-1.640625 0 -3.28125 0.125q-1.640625 0.109375 -2.984375 0.59375q-1.34375 0.484375 -2.1875 1.390625q-0.828125 0.890625 -0.828125 2.453125q0 1.5625 0.859375 2.390625q0.859375 0.8125 2.296875 0.8125zm18.357483 1.875l-2.796875 0l0 -29.59375l2.796875 0l0 29.59375zm17.116852 -26.40625q1.40625 -0.078125 2.984375 -0.125q1.578125 -0.0625 2.984375 -0.0625q2.15625 0 3.90625 0.5q1.765625 0.5 3.03125 1.453125q1.265625 0.953125 1.953125 2.375q0.703125 1.421875 0.703125 3.265625q0 2.5625 -1.4375 4.5625q-1.4375 2.0 -4.4375 2.796875l10.125 11.640625l-3.71875 0l-9.890625 -11.28125q-1.75 0 -3.203125 -0.125l0 11.40625l-3.0 0l0 -26.40625zm6.203125 2.453125q-0.84375 0 -1.65625 0.015625q-0.8125 0.015625 -1.546875 0.0625l0 9.875q0.734375 0.078125 1.546875 0.078125q0.8125 0 1.734375 0q2.96875 0 4.46875 -1.375q1.5 -1.390625 1.5 -4.015625q0 -2.09375 -1.34375 -3.359375q-1.34375 -1.28125 -4.703125 -1.28125zm24.206848 4.953125q2.4375 0 4.1875 0.828125q1.765625 0.8125 2.90625 2.203125q1.140625 1.375 1.671875 3.15625q0.546875 1.765625 0.546875 3.734375q0 1.953125 -0.546875 3.703125q-0.53125 1.734375 -1.65625 3.03125q-1.109375 1.296875 -2.859375 2.0625q-1.734375 0.765625 -4.09375 0.765625q-2.4375 0 -4.21875 -0.796875q-1.78125 -0.8125 -2.9375 -2.140625q-1.15625 -1.34375 -1.71875 -3.09375q-0.5625 -1.765625 -0.5625 -3.734375q0 -1.953125 0.5625 -3.71875q0.5625 -1.765625 1.6875 -3.09375q1.140625 -1.34375 2.90625 -2.125q1.765625 -0.78125 4.125 -0.78125zm0.109375 17.359375q1.609375 0 2.78125 -0.59375q1.1875 -0.609375 1.96875 -1.625q0.78125 -1.015625 1.140625 -2.359375q0.359375 -1.34375 0.359375 -2.828125q0 -1.515625 -0.390625 -2.90625q-0.375 -1.40625 -1.171875 -2.46875q-0.796875 -1.0625 -2.015625 -1.703125q-1.21875 -0.640625 -2.90625 -0.640625q-1.640625 0 -2.796875 0.609375q-1.15625 0.59375 -1.921875 1.59375q-0.765625 1.0 -1.125 2.34375q-0.359375 1.34375 -0.359375 2.8125q0 1.53125 0.375 2.9375q0.390625 1.390625 1.171875 2.46875q0.78125 1.078125 2.0 1.71875q1.21875 0.640625 2.890625 0.640625zm17.283722 1.640625l-2.796875 0l0 -29.59375l2.796875 0l0 29.59375zm9.519989 0l-2.796875 0l0 -29.59375l2.796875 0l0 29.59375zm11.879364 -16.765625q-1.921875 0 -2.78125 0.703125q-0.859375 0.703125 -0.859375 1.90625q0 0.390625 0.125 0.84375q0.125 0.4375 0.453125 0.8125q0.34375 0.375 0.921875 0.71875q0.578125 0.34375 1.546875 0.546875l2.84375 0.640625q1.671875 0.359375 2.6875 0.984375q1.03125 0.609375 1.578125 1.328125q0.5625 0.71875 0.734375 1.46875q0.1875 0.734375 0.1875 1.375q0 1.234375 -0.5 2.3125q-0.5 1.078125 -1.4375 1.890625q-0.9375 0.796875 -2.296875 1.25q-1.359375 0.46875 -3.03125 0.46875q-2.125 0 -3.9375 -0.625q-1.796875 -0.625 -2.875 -1.375l0.71875 -2.609375q1.453125 1.328125 3.203125 1.9375q1.765625 0.59375 3.15625 0.59375q2.0 0 3.046875 -0.984375q1.046875 -0.984375 1.046875 -2.0625q0 -0.359375 -0.046875 -0.8125q-0.046875 -0.46875 -0.328125 -0.9375q-0.265625 -0.484375 -0.828125 -0.90625q-0.5625 -0.421875 -1.609375 -0.65625l-3.828125 -0.96875q-1.328125 -0.3125 -2.171875 -0.828125q-0.828125 -0.53125 -1.3125 -1.140625q-0.484375 -0.625 -0.6875 -1.328125q-0.1875 -0.703125 -0.1875 -1.421875q0 -2.4375 1.8125 -3.890625q1.828125 -1.46875 4.859375 -1.46875q1.5625 0 3.359375 0.421875q1.796875 0.421875 3.046875 1.21875l-0.765625 2.40625q-0.796875 -0.6875 -2.375 -1.25q-1.578125 -0.5625 -3.46875 -0.5625z" fill-rule="nonzero"/><path fill="#ffffff" d="m327.81863 61.0421q0 1.0 0.375 1.671875q0.390625 0.65625 1.203125 1.171875q0.828125 0.515625 2.078125 0.984375q1.265625 0.453125 3.03125 1.0625q1.484375 0.46875 2.921875 1.09375q1.4375 0.625 2.578125 1.53125q1.140625 0.890625 1.8125 2.234375q0.6875 1.34375 0.6875 3.25q0 2.046875 -0.8125 3.484375q-0.796875 1.4375 -2.125 2.34375q-1.3125 0.90625 -3.03125 1.296875q-1.71875 0.40625 -3.546875 0.40625q-2.609375 0 -4.859375 -0.640625q-2.234375 -0.640625 -3.875 -1.5625l0.84375 -2.921875q0.765625 0.515625 1.515625 0.984375q0.765625 0.453125 1.65625 0.78125q0.90625 0.3125 1.984375 0.515625q1.09375 0.203125 2.484375 0.203125q1.796875 0 3.078125 -0.3125q1.28125 -0.328125 2.078125 -0.90625q0.8125 -0.578125 1.171875 -1.375q0.359375 -0.8125 0.359375 -1.734375q0 -1.359375 -0.640625 -2.296875q-0.640625 -0.9375 -1.671875 -1.609375q-1.015625 -0.6875 -2.234375 -1.140625q-1.21875 -0.46875 -2.421875 -0.875q-1.71875 -0.546875 -3.125 -1.1875q-1.390625 -0.640625 -2.375 -1.515625q-0.96875 -0.890625 -1.515625 -2.046875q-0.546875 -1.15625 -0.546875 -2.765625q0 -1.796875 0.65625 -3.046875q0.671875 -1.265625 1.8125 -2.0625q1.140625 -0.8125 2.6875 -1.1875q1.5625 -0.375 3.375 -0.375q2.15625 0 4.15625 0.4375q2.0 0.4375 3.40625 1.078125l-0.84375 3.078125q-0.640625 -0.5625 -1.5 -0.9375q-0.859375 -0.375 -1.8125 -0.59375q-0.9375 -0.234375 -1.859375 -0.328125q-0.90625 -0.09375 -1.71875 -0.09375q-2.515625 0 -3.984375 0.9375q-1.453125 0.9375 -1.453125 2.96875zm29.32434 1.046875q2.046875 0 3.5625 0.796875q1.515625 0.796875 2.515625 2.125q1.0 1.3125 1.5 3.0625q0.5 1.734375 0.5 3.65625q0 2.0 -0.546875 3.78125q-0.53125 1.78125 -1.59375 3.125q-1.0625 1.328125 -2.65625 2.140625q-1.59375 0.796875 -3.71875 0.796875q-2.6875 0 -4.40625 -1.15625q-1.71875 -1.171875 -2.234375 -2.890625l0 13.96875l-2.796875 0l0 -28.8125l2.1875 0l0.328125 3.453125l0.15625 0q0.484375 -0.734375 1.1875 -1.46875q0.703125 -0.734375 1.609375 -1.296875q0.921875 -0.5625 2.015625 -0.921875q1.109375 -0.359375 2.390625 -0.359375zm-0.71875 2.359375q-1.921875 0 -3.578125 1.046875q-1.65625 1.03125 -2.78125 3.0l0 5.875q0.359375 1.15625 1.03125 2.046875q0.6875 0.875 1.578125 1.515625q0.90625 0.640625 1.921875 0.96875q1.03125 0.3125 2.0625 0.3125q1.40625 0 2.4375 -0.5625q1.046875 -0.5625 1.75 -1.5625q0.703125 -1.0 1.0625 -2.3125q0.359375 -1.328125 0.359375 -2.84375q0 -1.4375 -0.34375 -2.796875q-0.34375 -1.359375 -1.0625 -2.40625q-0.71875 -1.046875 -1.828125 -1.65625q-1.09375 -0.625 -2.609375 -0.625zm22.078125 -2.359375q3.515625 0 5.4375 1.78125q1.921875 1.78125 1.921875 5.015625q0 0.6875 -0.078125 1.390625q-0.078125 0.6875 -0.28125 1.015625l-13.484375 0l0 0.390625q0 1.53125 0.40625 2.9375q0.40625 1.390625 1.203125 2.46875q0.796875 1.078125 2.015625 1.71875q1.21875 0.640625 2.90625 0.640625q0.953125 0 1.875 -0.21875q0.921875 -0.21875 1.75 -0.5625q0.84375 -0.34375 1.5625 -0.734375q0.71875 -0.40625 1.28125 -0.796875l0.484375 2.265625q-0.515625 0.328125 -1.28125 0.71875q-0.765625 0.375 -1.6875 0.703125q-0.90625 0.3125 -2.015625 0.53125q-1.09375 0.21875 -2.296875 0.21875q-2.234375 0 -3.953125 -0.78125q-1.71875 -0.78125 -2.890625 -2.125q-1.15625 -1.34375 -1.765625 -3.09375q-0.59375 -1.765625 -0.59375 -3.6875q0 -1.953125 0.625 -3.734375q0.625 -1.78125 1.8125 -3.140625q1.203125 -1.359375 2.984375 -2.140625q1.78125 -0.78125 4.0625 -0.78125zm-0.125 2.234375q-2.640625 0 -4.09375 1.390625q-1.453125 1.375 -1.984375 3.453125l10.921875 0q0.046875 -0.203125 0.046875 -0.359375q0 -0.15625 0 -0.359375q0 -1.0 -0.40625 -1.78125q-0.40625 -0.78125 -1.09375 -1.296875q-0.671875 -0.515625 -1.546875 -0.78125q-0.875 -0.265625 -1.84375 -0.265625zm25.492493 16.765625l0 -12.15625q0 -2.40625 -1.09375 -3.4375q-1.078125 -1.046875 -2.75 -1.046875q-1.0 0 -1.984375 0.328125q-0.984375 0.3125 -1.828125 0.9375q-0.828125 0.609375 -1.46875 1.515625q-0.640625 0.90625 -1.0 2.0625l0 11.796875l-2.796875 0l0 -18.40625l2.1875 0l0.328125 3.453125l0.15625 0q0.515625 -1.6875 2.3125 -2.859375q1.8125 -1.1875 4.484375 -1.1875q1.28125 0 2.421875 0.34375q1.140625 0.34375 1.984375 1.109375q0.84375 0.75 1.34375 2.0q0.5 1.234375 0.5 3.03125l0 12.515625l-2.796875 0zm9.706207 -16.515625l-3.078125 0l0 -1.484375l3.171875 -0.40625l0.59375 -5.546875l2.125 0l0 5.546875l4.3125 0l0 1.890625l-4.3125 0l0 12.75q0 1.28125 0.375 1.6875q0.375 0.390625 1.171875 0.390625q0.921875 0 1.640625 -0.265625q0.734375 -0.28125 1.28125 -0.6875l0.5625 2.125q-0.671875 0.3125 -1.78125 0.625q-1.09375 0.328125 -2.421875 0.328125q-1.28125 0 -2.0 -0.359375q-0.71875 -0.359375 -1.078125 -0.953125q-0.359375 -0.609375 -0.46875 -1.34375q-0.09375 -0.734375 -0.09375 -1.46875l0 -12.828125z" fill-rule="nonzero"/><path fill="#ffffff" d="m93.519684 28.146982l-16.039368 4.7165356l-22.013126 19.813648l-4.7165337 11.95013l0.31233597 24.845146l66.98688 10.377953l-0.31233215 -66.35696z" fill-rule="evenodd"/></g></svg>